<?xml version="1.0" encoding="UTF-8" standalone="no"?>
<!-- Created with Inkscape (http://www.inkscape.org/) -->

<svg
   version="1.1"
   id="svg1"
   width="278.47998"
   height="258"
   viewBox="0 0 278.47998 257.99999"
   xmlns="http://www.w3.org/2000/svg"
   xmlns:svg="http://www.w3.org/2000/svg">
  <defs
     id="defs1">
    <clipPath
       clipPathUnits="userSpaceOnUse"
       id="clipPath215">
      <path
         d="M 0,841.98 H 595.2 V 0 H 0 Z"
         transform="translate(-537.78001,-164.78)"
         id="path215" />
    </clipPath>
    <clipPath
       clipPathUnits="userSpaceOnUse"
       id="clipPath252">
      <path
         d="m 451.14,164.78 h 1.26 v 50.52 h -1.26 z"
         transform="translate(-451.68,-214.82001)"
         id="path252" />
    </clipPath>
    <clipPath
       clipPathUnits="userSpaceOnUse"
       id="clipPath254">
      <path
         d="m 451.2,164.78 h 2.04 v 0.54 h -2.04 z"
         transform="translate(-451.74002,-164.78)"
         id="path254" />
    </clipPath>
    <clipPath
       clipPathUnits="userSpaceOnUse"
       id="clipPath257">
      <path
         d="m 451.08,164.78 h 1.44 v 50.52 h -1.44 z"
         transform="translate(-451.62,-214.82001)"
         id="path257" />
    </clipPath>
    <clipPath
       clipPathUnits="userSpaceOnUse"
       id="clipPath259">
      <path
         d="m 451.32,164.78 h 1.98 v 0.54 h -1.98 z"
         transform="translate(-451.86001,-164.78)"
         id="path259" />
    </clipPath>
    <clipPath
       clipPathUnits="userSpaceOnUse"
       id="clipPath262">
      <path
         d="m 451.08,164.78 h 1.44 v 50.52 h -1.44 z"
         transform="translate(-451.56001,-214.82001)"
         id="path262" />
    </clipPath>
    <clipPath
       clipPathUnits="userSpaceOnUse"
       id="clipPath264">
      <path
         d="m 451.32,164.78 h 1.92 v 0.54 h -1.92 z"
         transform="translate(-451.86001,-164.78)"
         id="path264" />
    </clipPath>
    <clipPath
       clipPathUnits="userSpaceOnUse"
       id="clipPath267">
      <path
         d="m 451.08,164.78 h 1.62 v 50.52 h -1.62 z"
         transform="translate(-451.62,-214.82001)"
         id="path267" />
    </clipPath>
    <clipPath
       clipPathUnits="userSpaceOnUse"
       id="clipPath269">
      <path
         d="m 451.5,164.78 h 1.74 v 0.54 h -1.74 z"
         transform="translate(-452.04,-164.78)"
         id="path269" />
    </clipPath>
    <clipPath
       clipPathUnits="userSpaceOnUse"
       id="clipPath272">
      <path
         d="m 451.08,164.78 h 1.56 v 50.52 h -1.56 z"
         transform="translate(-451.56001,-214.82001)"
         id="path272" />
    </clipPath>
    <clipPath
       clipPathUnits="userSpaceOnUse"
       id="clipPath274">
      <path
         d="m 451.44,164.78 h 2.1 v 0.54 h -2.1 z"
         transform="translate(-451.98,-164.78)"
         id="path274" />
    </clipPath>
    <clipPath
       clipPathUnits="userSpaceOnUse"
       id="clipPath277">
      <path
         d="m 451.2,164.78 h 1.44 v 50.52 h -1.44 z"
         transform="translate(-451.74002,-214.82001)"
         id="path277" />
    </clipPath>
    <clipPath
       clipPathUnits="userSpaceOnUse"
       id="clipPath279">
      <path
         d="m 451.44,164.78 h 2.04 v 0.54 h -2.04 z"
         transform="translate(-451.98,-164.78)"
         id="path279" />
    </clipPath>
    <clipPath
       clipPathUnits="userSpaceOnUse"
       id="clipPath282">
      <path
         d="m 451.08,164.78 h 1.68 v 50.52 h -1.68 z"
         transform="translate(-451.62,-214.82001)"
         id="path282" />
    </clipPath>
    <clipPath
       clipPathUnits="userSpaceOnUse"
       id="clipPath284">
      <path
         d="m 451.56,164.78 h 1.74 v 0.54 h -1.74 z"
         transform="translate(-452.10002,-164.78)"
         id="path284" />
    </clipPath>
    <clipPath
       clipPathUnits="userSpaceOnUse"
       id="clipPath286">
      <path
         d="m 371.28,309.14 h 28.74 v 4.98 h -28.74 z"
         transform="translate(-365.04,-313.58001)"
         id="path286" />
    </clipPath>
    <clipPath
       clipPathUnits="userSpaceOnUse"
       id="clipPath289">
      <path
         d="m 450.9,164.78 h 1.56 v 50.52 h -1.56 z"
         transform="translate(-451.38002,-214.82001)"
         id="path289" />
    </clipPath>
    <clipPath
       clipPathUnits="userSpaceOnUse"
       id="clipPath291">
      <path
         d="m 451.26,164.78 h 1.92 v 0.54 h -1.92 z"
         transform="translate(-451.80001,-164.78)"
         id="path291" />
    </clipPath>
    <clipPath
       clipPathUnits="userSpaceOnUse"
       id="clipPath294">
      <path
         d="m 450.96,164.78 h 1.32 v 50.52 h -1.32 z"
         transform="translate(-451.44001,-214.82001)"
         id="path294" />
    </clipPath>
    <clipPath
       clipPathUnits="userSpaceOnUse"
       id="clipPath296">
      <path
         d="m 451.08,164.78 h 2.16 v 0.54 h -2.16 z"
         transform="translate(-451.62,-164.78)"
         id="path296" />
    </clipPath>
    <clipPath
       clipPathUnits="userSpaceOnUse"
       id="clipPath299">
      <path
         d="m 450.96,164.78 h 1.56 v 50.52 h -1.56 z"
         transform="translate(-451.44001,-214.82001)"
         id="path299" />
    </clipPath>
    <clipPath
       clipPathUnits="userSpaceOnUse"
       id="clipPath301">
      <path
         d="m 451.32,164.78 h 1.92 v 0.54 h -1.92 z"
         transform="translate(-451.86001,-164.78)"
         id="path301" />
    </clipPath>
    <clipPath
       clipPathUnits="userSpaceOnUse"
       id="clipPath304">
      <path
         d="m 451.08,164.78 h 1.5 v 50.52 h -1.5 z"
         transform="translate(-451.62,-214.82001)"
         id="path304" />
    </clipPath>
    <clipPath
       clipPathUnits="userSpaceOnUse"
       id="clipPath306">
      <path
         d="m 451.38,164.78 h 1.8 v 0.54 h -1.8 z"
         transform="translate(-451.92001,-164.78)"
         id="path306" />
    </clipPath>
  </defs>
  <g
     id="g1"
     transform="translate(-446.71999,-691.84004)">
    <path
       id="path211"
       d="M 315.42,106.1 H 558.66 V 330.56 H 315.42 Z"
       style="display:none;fill:#ffffff ;fill-opacity:1;fill-rule:nonzero;stroke:none"
       transform="matrix(1.3333333,0,0,-1.3333333,0,1122.6667)" />
    <path
       id="path212"
       d="M 335.04,129.62 H 543.9 v 193.5 H 335.04 Z"
       style="fill:#ffffff;fill-opacity:1;fill-rule:nonzero;stroke:none"
       transform="matrix(1.3333333,0,0,-1.3333333,0,1122.6667)" />
    <path
       id="path213"
       d="M 0,0 H 166.5 V -150"
       style="fill:none;stroke:#000000;stroke-width:0.932;stroke-linecap:round;stroke-linejoin:round;stroke-miterlimit:10;stroke-dasharray:none;stroke-opacity:1"
       transform="matrix(1.3333333,0,0,-1.3333333,495.04,702.96)" />
    <path
       id="path214"
       d="M 0,0 H -166.5"
       style="fill:none;stroke:#000000;stroke-width:0.932;stroke-linecap:round;stroke-linejoin:round;stroke-miterlimit:10;stroke-dasharray:none;stroke-opacity:1"
       transform="matrix(1.3333333,0,0,-1.3333333,717.04,902.96)"
       clip-path="url(#clipPath215)" />
    <path
       id="path216"
       d="M 0,0 V 150 0 h 3"
       style="fill:none;stroke:#000000;stroke-width:0.932;stroke-linecap:round;stroke-linejoin:round;stroke-miterlimit:10;stroke-dasharray:none;stroke-opacity:1"
       transform="matrix(1.3333333,0,0,-1.3333333,495.04,902.96)" />
    <path
       id="path217"
       d="M 0,0 H 3"
       style="fill:none;stroke:#000000;stroke-width:0.932;stroke-linecap:round;stroke-linejoin:round;stroke-miterlimit:10;stroke-dasharray:none;stroke-opacity:1"
       transform="matrix(1.3333333,0,0,-1.3333333,495.04,869.67999)" />
    <path
       id="path218"
       d="M 0,0 H 3"
       style="fill:none;stroke:#000000;stroke-width:0.932;stroke-linecap:round;stroke-linejoin:round;stroke-miterlimit:10;stroke-dasharray:none;stroke-opacity:1"
       transform="matrix(1.3333333,0,0,-1.3333333,495.04,836.23999)" />
    <path
       id="path219"
       d="M 0,0 H 3"
       style="fill:none;stroke:#000000;stroke-width:0.932;stroke-linecap:round;stroke-linejoin:round;stroke-miterlimit:10;stroke-dasharray:none;stroke-opacity:1"
       transform="matrix(1.3333333,0,0,-1.3333333,495.04,802.96)" />
    <path
       id="path220"
       d="M 0,0 H 3"
       style="fill:none;stroke:#000000;stroke-width:0.932;stroke-linecap:round;stroke-linejoin:round;stroke-miterlimit:10;stroke-dasharray:none;stroke-opacity:1"
       transform="matrix(1.3333333,0,0,-1.3333333,495.04,769.6)" />
    <path
       id="path221"
       d="M 0,0 H 3"
       style="fill:none;stroke:#000000;stroke-width:0.932;stroke-linecap:round;stroke-linejoin:round;stroke-miterlimit:10;stroke-dasharray:none;stroke-opacity:1"
       transform="matrix(1.3333333,0,0,-1.3333333,495.04,736.32001)" />
    <path
       id="path222"
       d="M 0,0 H 3"
       style="fill:none;stroke:#000000;stroke-width:0.932;stroke-linecap:round;stroke-linejoin:round;stroke-miterlimit:10;stroke-dasharray:none;stroke-opacity:1"
       transform="matrix(1.3333333,0,0,-1.3333333,495.04,702.96)" />
    <path
       id="path223"
       d="M 0,0 H 166.5"
       style="fill:none;stroke:#000000;stroke-width:0.932;stroke-linecap:round;stroke-linejoin:round;stroke-miterlimit:10;stroke-dasharray:none;stroke-opacity:1"
       transform="matrix(1.3333333,0,0,-1.3333333,495.04,902.96)" />
    <path
       id="path224"
       d="M 0,0 V 2.28"
       style="fill:none;stroke:#000000;stroke-width:0.932;stroke-linecap:round;stroke-linejoin:round;stroke-miterlimit:10;stroke-dasharray:none;stroke-opacity:1"
       transform="matrix(1.3333333,0,0,-1.3333333,495.04,902.96)" />
    <path
       id="path225"
       d="M 0,0 V 2.28"
       style="fill:none;stroke:#000000;stroke-width:0.932;stroke-linecap:round;stroke-linejoin:round;stroke-miterlimit:10;stroke-dasharray:none;stroke-opacity:1"
       transform="matrix(1.3333333,0,0,-1.3333333,506.15999,902.96)" />
    <path
       id="path226"
       d="M 0,0 V 2.28"
       style="fill:none;stroke:#000000;stroke-width:0.932;stroke-linecap:round;stroke-linejoin:round;stroke-miterlimit:10;stroke-dasharray:none;stroke-opacity:1"
       transform="matrix(1.3333333,0,0,-1.3333333,517.19999,902.96)" />
    <path
       id="path227"
       d="M 0,0 V 2.28"
       style="fill:none;stroke:#000000;stroke-width:0.932;stroke-linecap:round;stroke-linejoin:round;stroke-miterlimit:10;stroke-dasharray:none;stroke-opacity:1"
       transform="matrix(1.3333333,0,0,-1.3333333,528.32001,902.96)" />
    <path
       id="path228"
       d="M 0,0 V 2.28"
       style="fill:none;stroke:#000000;stroke-width:0.932;stroke-linecap:round;stroke-linejoin:round;stroke-miterlimit:10;stroke-dasharray:none;stroke-opacity:1"
       transform="matrix(1.3333333,0,0,-1.3333333,539.44,902.96)" />
    <path
       id="path229"
       d="M 0,0 V 2.28"
       style="fill:none;stroke:#000000;stroke-width:0.932;stroke-linecap:round;stroke-linejoin:round;stroke-miterlimit:10;stroke-dasharray:none;stroke-opacity:1"
       transform="matrix(1.3333333,0,0,-1.3333333,550.48,902.96)" />
    <path
       id="path230"
       d="M 0,0 V 2.28"
       style="fill:none;stroke:#000000;stroke-width:0.932;stroke-linecap:round;stroke-linejoin:round;stroke-miterlimit:10;stroke-dasharray:none;stroke-opacity:1"
       transform="matrix(1.3333333,0,0,-1.3333333,561.6,902.96)" />
    <path
       id="path231"
       d="M 0,0 V 2.28"
       style="fill:none;stroke:#000000;stroke-width:0.932;stroke-linecap:round;stroke-linejoin:round;stroke-miterlimit:10;stroke-dasharray:none;stroke-opacity:1"
       transform="matrix(1.3333333,0,0,-1.3333333,572.80001,902.96)" />
    <path
       id="path232"
       d="M 0,0 V 2.28"
       style="fill:none;stroke:#000000;stroke-width:0.932;stroke-linecap:round;stroke-linejoin:round;stroke-miterlimit:10;stroke-dasharray:none;stroke-opacity:1"
       transform="matrix(1.3333333,0,0,-1.3333333,583.84001,902.96)" />
    <path
       id="path233"
       d="M 0,0 V 2.28"
       style="fill:none;stroke:#000000;stroke-width:0.932;stroke-linecap:round;stroke-linejoin:round;stroke-miterlimit:10;stroke-dasharray:none;stroke-opacity:1"
       transform="matrix(1.3333333,0,0,-1.3333333,594.96,902.96)" />
    <path
       id="path234"
       d="M 0,0 V 2.28"
       style="fill:none;stroke:#000000;stroke-width:0.932;stroke-linecap:round;stroke-linejoin:round;stroke-miterlimit:10;stroke-dasharray:none;stroke-opacity:1"
       transform="matrix(1.3333333,0,0,-1.3333333,606.08,902.96)" />
    <path
       id="path235"
       d="M 0,0 V 2.28"
       style="fill:none;stroke:#000000;stroke-width:0.932;stroke-linecap:round;stroke-linejoin:round;stroke-miterlimit:10;stroke-dasharray:none;stroke-opacity:1"
       transform="matrix(1.3333333,0,0,-1.3333333,617.12,902.96)" />
    <path
       id="path236"
       d="M 0,0 V 2.28"
       style="fill:none;stroke:#000000;stroke-width:0.932;stroke-linecap:round;stroke-linejoin:round;stroke-miterlimit:10;stroke-dasharray:none;stroke-opacity:1"
       transform="matrix(1.3333333,0,0,-1.3333333,628.23999,902.96)" />
    <path
       id="path237"
       d="M 0,0 V 2.28"
       style="fill:none;stroke:#000000;stroke-width:0.932;stroke-linecap:round;stroke-linejoin:round;stroke-miterlimit:10;stroke-dasharray:none;stroke-opacity:1"
       transform="matrix(1.3333333,0,0,-1.3333333,639.28001,902.96)" />
    <path
       id="path238"
       d="M 0,0 V 2.28"
       style="fill:none;stroke:#000000;stroke-width:0.932;stroke-linecap:round;stroke-linejoin:round;stroke-miterlimit:10;stroke-dasharray:none;stroke-opacity:1"
       transform="matrix(1.3333333,0,0,-1.3333333,650.4,902.96)" />
    <path
       id="path239"
       d="M 0,0 V 2.28"
       style="fill:none;stroke:#000000;stroke-width:0.932;stroke-linecap:round;stroke-linejoin:round;stroke-miterlimit:10;stroke-dasharray:none;stroke-opacity:1"
       transform="matrix(1.3333333,0,0,-1.3333333,661.52,902.96)" />
    <path
       id="path240"
       d="M 0,0 V 2.28"
       style="fill:none;stroke:#000000;stroke-width:0.932;stroke-linecap:round;stroke-linejoin:round;stroke-miterlimit:10;stroke-dasharray:none;stroke-opacity:1"
       transform="matrix(1.3333333,0,0,-1.3333333,672.63999,902.96)" />
    <path
       id="path241"
       d="M 0,0 V 2.28"
       style="fill:none;stroke:#000000;stroke-width:0.932;stroke-linecap:round;stroke-linejoin:round;stroke-miterlimit:10;stroke-dasharray:none;stroke-opacity:1"
       transform="matrix(1.3333333,0,0,-1.3333333,683.76001,902.96)" />
    <path
       id="path242"
       d="M 0,0 V 2.28"
       style="fill:none;stroke:#000000;stroke-width:0.932;stroke-linecap:round;stroke-linejoin:round;stroke-miterlimit:10;stroke-dasharray:none;stroke-opacity:1"
       transform="matrix(1.3333333,0,0,-1.3333333,694.88,902.96)" />
    <path
       id="path243"
       d="M 0,0 V 2.28"
       style="fill:none;stroke:#000000;stroke-width:0.932;stroke-linecap:round;stroke-linejoin:round;stroke-miterlimit:10;stroke-dasharray:none;stroke-opacity:1"
       transform="matrix(1.3333333,0,0,-1.3333333,705.92,902.96)" />
    <path
       id="path244"
       d="M 0,0 V 2.28"
       style="fill:none;stroke:#000000;stroke-width:0.932;stroke-linecap:round;stroke-linejoin:round;stroke-miterlimit:10;stroke-dasharray:none;stroke-opacity:1"
       transform="matrix(1.3333333,0,0,-1.3333333,717.04,902.96)" />
    <path
       id="path245"
       d="M 0,0 V 3.06"
       style="fill:none;stroke:#000000;stroke-width:0.932;stroke-linecap:round;stroke-linejoin:round;stroke-miterlimit:10;stroke-dasharray:none;stroke-opacity:1"
       transform="matrix(1.3333333,0,0,-1.3333333,495.04,902.96)" />
    <path
       id="path246"
       d="M 0,0 V 3.06"
       style="fill:none;stroke:#000000;stroke-width:0.932;stroke-linecap:round;stroke-linejoin:round;stroke-miterlimit:10;stroke-dasharray:none;stroke-opacity:1"
       transform="matrix(1.3333333,0,0,-1.3333333,550.48,902.96)" />
    <path
       id="path247"
       d="M 0,0 V 3.06"
       style="fill:none;stroke:#000000;stroke-width:0.932;stroke-linecap:round;stroke-linejoin:round;stroke-miterlimit:10;stroke-dasharray:none;stroke-opacity:1"
       transform="matrix(1.3333333,0,0,-1.3333333,606.08,902.96)" />
    <path
       id="path248"
       d="M 0,0 V 3.06"
       style="fill:none;stroke:#000000;stroke-width:0.932;stroke-linecap:round;stroke-linejoin:round;stroke-miterlimit:10;stroke-dasharray:none;stroke-opacity:1"
       transform="matrix(1.3333333,0,0,-1.3333333,661.52,902.96)" />
    <path
       id="path249"
       d="M 0,0 V 3.06"
       style="fill:none;stroke:#000000;stroke-width:0.932;stroke-linecap:round;stroke-linejoin:round;stroke-miterlimit:10;stroke-dasharray:none;stroke-opacity:1"
       transform="matrix(1.3333333,0,0,-1.3333333,717.04,902.96)" />
    <path
       id="path250"
       d="m 0,0 -1.8,-0.24 c -8.629,-1.136 -17.104,-1.743 -25.68,-3.3 l -1.38,-0.24 -1.32,-0.3 c -4.146,-1.019 -7.136,-2.026 -10.92,-4.02 l -1.2,-0.66 -1.14,-0.66 c -1.212,-0.435 -3.376,-2.633 -4.14,-3.72 l -0.42,-0.66 -0.42,-0.6 c -0.494,-1.098 -0.694,-1.981 -0.78,-3.18 l -0.06,-1.2 v -1.32 l 0.18,-1.2 0.24,-1.26 0.3,-1.26 0.36,-1.2 0.3,-1.26 0.96,-2.52 0.6,-1.2 0.6,-1.26 0.66,-1.26 0.6,-1.26 0.48,-1.32 0.36,-1.2 0.36,-1.26 0.48,-1.26 0.6,-1.2 0.6,-1.26 0.66,-1.26 0.3,-0.6 0.24,-0.6 0.42,-1.26 0.36,-1.26 0.3,-1.26 0.24,-1.26 0.24,-1.32 0.18,-1.2 0.24,-2.52 0.06,-1.2 0.12,-2.52 0.06,-1.2 0.24,-2.52 0.3,-2.52 0.24,-2.52 0.12,-2.52 v -0.3 c 0,-1.28 0,-2.56 0,-3.84 v -0.84 -1.02 c 0.237,-7.242 0.445,-14.471 0.54,-21.72 v -2.22"
       style="fill:none;stroke:#000080 ;stroke-width:0.932;stroke-linecap:round;stroke-linejoin:round;stroke-miterlimit:10;stroke-dasharray:none;stroke-opacity:1"
       transform="matrix(1.3333333,0,0,-1.3333333,651.19999,704.56)" />
    <path
       id="path251"
       d="m 0,0 v -1.2 c 0.037,-15.212 -0.08,-30.455 0.06,-45.66 v -3.18"
       style="fill:none;stroke:#000080 ;stroke-width:0.932;stroke-linecap:round;stroke-linejoin:round;stroke-miterlimit:10;stroke-dasharray:none;stroke-opacity:1"
       transform="matrix(1.3333333,0,0,-1.3333333,602.23999,836.23999)"
       clip-path="url(#clipPath252)" />
    <path
       id="path253"
       d="M 0,0 0.36,-24.96 0.6,-37.5 0.9,-49.98"
       style="fill:none;stroke:#000080 ;stroke-width:0.932;stroke-linecap:round;stroke-linejoin:round;stroke-miterlimit:10;stroke-dasharray:none;stroke-opacity:1"
       transform="matrix(1.3333333,0,0,-1.3333333,602.32001,902.96)"
       clip-path="url(#clipPath254)" />
    <path
       id="path255"
       d="M 0,0 -2.64,-0.48 C -8.073,-1.437 -13.562,-2.091 -18.96,-3.3 l -2.46,-0.48 -2.28,-0.6 c -4.416,-1.067 -8.359,-2.348 -12.66,-3.72 l -1.86,-0.66 -1.74,-0.66 c -2.859,-0.852 -6.433,-2.444 -9.18,-3.72 l -1.2,-0.66 -1.14,-0.6 c -1.848,-1.085 -3.157,-2.244 -4.62,-3.78 l -0.6,-0.6 -0.54,-0.66 c -0.856,-1.134 -1.276,-1.826 -1.86,-3.12 l -0.42,-1.26 -0.18,-0.66 -0.06,-0.54 -0.06,-0.66 v -0.6 l 0.06,-1.26 0.06,-1.26 0.12,-1.2 0.18,-1.26 0.24,-1.26 0.24,-1.26 0.18,-1.32 0.12,-1.2 0.18,-1.26 0.3,-1.26 0.18,-0.66 0.18,-0.54 0.6,-1.26 0.54,-1.26 0.48,-1.2 0.36,-1.26 0.18,-1.26 0.24,-1.26 0.18,-1.26 0.3,-2.52 0.18,-2.52 0.06,-1.2 v -3.72 l 0.18,-2.52 0.24,-2.52 0.48,-5.04 v -0.3 c 0.172,-1.265 0.064,-2.593 0.18,-3.84 v -0.84 -1.02 c 0.25,-7.236 0.357,-14.479 0.48,-21.72 v -2.22"
       style="fill:none;stroke:#ff00ff ;stroke-width:0.932;stroke-linecap:round;stroke-linejoin:round;stroke-miterlimit:10;stroke-dasharray:none;stroke-opacity:1"
       transform="matrix(1.3333333,0,0,-1.3333333,672.96,704.56)" />
    <path
       id="path256"
       d="m 0,0 v -1.2 c 0.1,-15.215 0.113,-30.442 0.18,-45.66 l 0.06,-3.18"
       style="fill:none;stroke:#ff00ff ;stroke-width:0.932;stroke-linecap:round;stroke-linejoin:round;stroke-miterlimit:10;stroke-dasharray:none;stroke-opacity:1"
       transform="matrix(1.3333333,0,0,-1.3333333,602.15999,836.23999)"
       clip-path="url(#clipPath257)" />
    <path
       id="path258"
       d="M 0,0 0.36,-24.96 0.54,-37.5 0.84,-49.98"
       style="fill:none;stroke:#ff00ff ;stroke-width:0.932;stroke-linecap:round;stroke-linejoin:round;stroke-miterlimit:10;stroke-dasharray:none;stroke-opacity:1"
       transform="matrix(1.3333333,0,0,-1.3333333,602.48,902.96)"
       clip-path="url(#clipPath259)" />
    <path
       id="path260"
       d="m 0,0 -2.4,-0.48 c -5.308,-1.003 -10.599,-2.052 -15.9,-3.06 l -1.44,-0.24 -1.56,-0.3 c -7.986,-1.533 -16.095,-2.727 -24.06,-4.38 l -1.62,-0.3 -3.06,-0.66 c -5.772,-1.087 -12.379,-2.447 -18.06,-4.08 l -1.02,-0.3 -1.02,-0.3 c -3.318,-1.011 -5.961,-2.268 -8.94,-4.08 l -0.96,-0.6 -0.96,-0.66 c -1.65,-1.316 -1.885,-1.489 -3.24,-3.12 l -0.96,-1.26 -0.48,-0.66 -0.3,-0.54 -0.36,-0.66 -0.3,-0.6 -0.54,-1.26 -0.36,-1.26 -0.24,-1.2 -0.06,-1.26 v -2.52 -1.32 l -0.12,-1.2 v -1.26 l 0.06,-1.26 0.06,-0.66 0.12,-0.54 0.3,-1.26 0.36,-1.26 0.3,-1.2 0.24,-1.26 0.18,-1.26 0.24,-1.26 0.24,-1.26 0.24,-1.32 0.36,-1.2 0.36,-1.26 0.24,-1.26 0.12,-1.2 0.06,-1.26 v -2.46 l 0.06,-2.52 0.06,-1.26 0.12,-1.26 0.18,-1.2 0.24,-1.32 0.24,-1.26 0.06,-1.26 v -0.3 c -0.005,-1.292 -0.106,-2.519 -0.06,-3.84 v -0.84 -1.02 c 0.094,-7.231 0.346,-14.482 0.48,-21.72 v -2.22"
       style="fill:none;stroke:#ffff00 ;stroke-width:0.932;stroke-linecap:round;stroke-linejoin:round;stroke-miterlimit:10;stroke-dasharray:none;stroke-opacity:1"
       transform="matrix(1.3333333,0,0,-1.3333333,712.88,704.56)" />
    <path
       id="path261"
       d="M 0,0 V -1.2 C 0.157,-16.412 0.142,-31.643 0.24,-46.86 L 0.3,-50.04"
       style="fill:none;stroke:#ffff00 ;stroke-width:0.932;stroke-linecap:round;stroke-linejoin:round;stroke-miterlimit:10;stroke-dasharray:none;stroke-opacity:1"
       transform="matrix(1.3333333,0,0,-1.3333333,602.08,836.23999)"
       clip-path="url(#clipPath262)" />
    <path
       id="path263"
       d="M 0,0 0.3,-24.96 0.54,-37.5 0.78,-49.98"
       style="fill:none;stroke:#ffff00 ;stroke-width:0.932;stroke-linecap:round;stroke-linejoin:round;stroke-miterlimit:10;stroke-dasharray:none;stroke-opacity:1"
       transform="matrix(1.3333333,0,0,-1.3333333,602.48,902.96)"
       clip-path="url(#clipPath264)" />
    <path
       id="path265"
       d="m 0,0 -3.06,-0.48 c -6.593,-0.981 -12.963,-1.699 -19.5,-3.06 l -1.2,-0.24 -1.2,-0.3 c -4.178,-1.073 -7.351,-2.432 -11.34,-4.02 l -1.62,-0.66 -3.3,-1.2 -3.3,-1.32 -3.12,-1.2 -1.56,-0.66 -1.44,-0.66 -2.82,-1.2 c -2.219,-1.034 -4.144,-2.059 -6.3,-3.18 l -1.08,-0.6 -1.08,-0.66 c -1.734,-1.068 -2.783,-1.947 -4.38,-3.12 l -1.44,-1.26 -1.32,-1.2 -1.2,-1.26 -0.96,-1.26 -0.9,-1.26 -0.36,-0.6 -0.3,-0.6 -0.54,-1.26 -0.84,-2.52 -0.48,-1.32 -0.36,-1.2 -0.36,-1.26 -0.24,-1.26 -0.06,-0.66 v -0.54 l 0.06,-1.26 0.12,-1.26 0.12,-1.2 0.06,-1.26 v -1.26 l 0.06,-1.26 0.12,-1.26 0.24,-1.32 0.36,-1.2 0.36,-1.26 0.18,-0.6 0.12,-0.66 0.12,-1.2 0.06,-1.26 v -2.46 l 0.24,-5.04 0.18,-2.52 0.24,-2.52 0.06,-0.3 c 0.007,-1.225 0.32,-2.592 0.24,-3.84 l 0.06,-0.84 v -1.02 c 0.259,-7.218 0.248,-14.494 0.42,-21.72 v -2.22"
       style="fill:none;stroke:#00ffff ;stroke-width:0.932;stroke-linecap:round;stroke-linejoin:round;stroke-miterlimit:10;stroke-dasharray:none;stroke-opacity:1"
       transform="matrix(1.3333333,0,0,-1.3333333,698.48,704.56)" />
    <path
       id="path266"
       d="m 0,0 v -1.2 c 0.173,-15.213 0.246,-30.444 0.36,-45.66 l 0.06,-3.18"
       style="fill:none;stroke:#00ffff ;stroke-width:0.932;stroke-linecap:round;stroke-linejoin:round;stroke-miterlimit:10;stroke-dasharray:none;stroke-opacity:1"
       transform="matrix(1.3333333,0,0,-1.3333333,602.15999,836.23999)"
       clip-path="url(#clipPath267)" />
    <path
       id="path268"
       d="M 0,0 0.24,-24.96 0.36,-37.5 0.6,-49.98"
       style="fill:none;stroke:#00ffff ;stroke-width:0.932;stroke-linecap:round;stroke-linejoin:round;stroke-miterlimit:10;stroke-dasharray:none;stroke-opacity:1"
       transform="matrix(1.3333333,0,0,-1.3333333,602.71999,902.96)"
       clip-path="url(#clipPath269)" />
    <path
       id="path270"
       d="m 0,0 1.38,-0.96 1.44,-0.84 1.32,-0.96 1.32,-1.02 0.72,-0.6 c 1.491,-1.213 3.231,-2.289 4.08,-4.08 l 0.06,-0.3 0.06,-0.3 -0.06,-0.36 -0.12,-0.54 -0.3,-0.66 -0.36,-0.66 -0.42,-0.66 -0.6,-0.54 -1.2,-1.32 -0.6,-0.6 c -1.655,-1.283 -3.423,-2.638 -5.16,-3.78 l -0.78,-0.6 -1.56,-1.32 -1.5,-1.2 -1.44,-1.26 -1.38,-1.26 -1.2,-1.2 -1.2,-1.26 -2.04,-2.52 -0.84,-1.2 -1.44,-2.52 -0.6,-1.26 -0.66,-1.32 -0.66,-1.2 -0.96,-2.52 -0.36,-1.2 -0.24,-1.26 -0.18,-1.26 -0.18,-1.2 -0.24,-1.26 -0.36,-2.52 -0.06,-0.6 v -0.66 l 0.12,-1.32 0.3,-1.2 0.3,-1.26 0.12,-0.6 0.12,-0.66 0.12,-1.2 v -3.72 -5.04 l 0.18,-2.52 0.24,-2.52 0.06,-0.3 c 0.148,-1.158 0.655,-2.633 0.54,-3.78 l 0.06,-0.9 0.06,-1.02 c 0.188,-7.238 0.22,-14.48 0.36,-21.72 v -2.22"
       style="fill:none;stroke:#800080 ;stroke-width:0.932;stroke-linecap:round;stroke-linejoin:round;stroke-miterlimit:10;stroke-dasharray:none;stroke-opacity:1"
       transform="matrix(1.3333333,0,0,-1.3333333,620.4,704.56)" />
    <path
       id="path271"
       d="m 0,0 v -1.2 c 0.176,-15.214 0.219,-30.442 0.36,-45.66 l 0.06,-3.18"
       style="fill:none;stroke:#800080 ;stroke-width:0.932;stroke-linecap:round;stroke-linejoin:round;stroke-miterlimit:10;stroke-dasharray:none;stroke-opacity:1"
       transform="matrix(1.3333333,0,0,-1.3333333,602.08,836.23999)"
       clip-path="url(#clipPath272)" />
    <path
       id="path273"
       d="M 0,0 0.42,-24.96 0.96,-49.98"
       style="fill:none;stroke:#800080 ;stroke-width:0.932;stroke-linecap:round;stroke-linejoin:round;stroke-miterlimit:10;stroke-dasharray:none;stroke-opacity:1"
       transform="matrix(1.3333333,0,0,-1.3333333,602.63999,902.96)"
       clip-path="url(#clipPath274)" />
    <path
       id="path275"
       d="m 0,0 2.88,-0.48 c 6.168,-1.018 12.066,-1.639 18.18,-3.06 l 1.14,-0.24 1.02,-0.3 c 3.6,-1.097 6.224,-2.097 9.54,-4.02 l 1.02,-0.66 1.02,-0.66 c 1.212,-0.711 2.907,-2.407 3.48,-3.72 l 0.3,-0.66 0.18,-0.6 c 0.212,-0.907 -0.198,-2.334 -0.54,-3.18 l -0.54,-1.2 -0.24,-0.66 -0.36,-0.66 -0.42,-0.54 -0.42,-0.66 -0.84,-1.26 -0.9,-1.26 -0.9,-1.2 -1.68,-2.52 -0.78,-1.26 -0.72,-1.2 -0.66,-1.26 -0.6,-1.26 -0.54,-1.26 -0.66,-1.32 -0.66,-1.2 -0.6,-1.26 -0.54,-1.26 -0.42,-1.2 -0.3,-1.26 -0.24,-1.26 -0.3,-1.2 -0.24,-1.26 -0.36,-1.26 -0.48,-2.52 -0.12,-1.32 v -3.72 -4.92 l 0.12,-5.04 0.12,-2.52 0.18,-2.52 0.06,-0.3 c 0.264,-1.377 0.457,-2.354 0.6,-3.78 l 0.06,-0.9 v -1.02 c 0.303,-7.235 0.575,-14.476 0.6,-21.72 l 0.06,-2.22"
       style="fill:none;stroke:#800000 ;stroke-width:0.932;stroke-linecap:round;stroke-linejoin:round;stroke-miterlimit:10;stroke-dasharray:none;stroke-opacity:1"
       transform="matrix(1.3333333,0,0,-1.3333333,568.32001,704.56)" />
    <path
       id="path276"
       d="m 0,0 v -1.2 c 0.162,-15.214 0.095,-30.442 0.18,-45.66 l 0.06,-3.18"
       style="fill:none;stroke:#800000 ;stroke-width:0.932;stroke-linecap:round;stroke-linejoin:round;stroke-miterlimit:10;stroke-dasharray:none;stroke-opacity:1"
       transform="matrix(1.3333333,0,0,-1.3333333,602.32001,836.23999)"
       clip-path="url(#clipPath277)" />
    <path
       id="path278"
       d="M 0,0 0.36,-24.96 0.6,-37.5 0.9,-49.98"
       style="fill:none;stroke:#800000 ;stroke-width:0.932;stroke-linecap:round;stroke-linejoin:round;stroke-miterlimit:10;stroke-dasharray:none;stroke-opacity:1"
       transform="matrix(1.3333333,0,0,-1.3333333,602.63999,902.96)"
       clip-path="url(#clipPath279)" />
    <path
       id="path280"
       d="M 0,0 2.82,-0.48 C 8.842,-1.497 14.709,-2.183 20.7,-3.54 l 1.2,-0.24 2.28,-0.6 c 3.963,-1.028 7.431,-2.193 11.22,-3.72 l 1.5,-0.66 1.32,-0.66 c 1.746,-0.621 4.155,-2.469 5.58,-3.72 l 0.6,-0.66 0.54,-0.6 c 0.849,-0.874 1.216,-2.019 1.44,-3.18 l 0.18,-1.2 0.06,-0.66 -0.06,-0.66 -0.12,-0.54 -0.12,-0.66 -0.72,-2.52 -0.42,-1.2 -0.48,-1.26 -0.9,-2.52 -0.96,-2.46 -1.02,-2.52 -1.92,-5.04 -0.3,-1.2 -0.36,-1.26 -0.66,-2.46 -1.08,-3.78 -0.24,-1.26 -0.24,-1.32 -0.3,-1.2 -0.18,-1.26 -0.12,-1.26 -0.06,-1.2 0.12,-2.52 0.06,-1.2 v -2.52 l -0.06,-2.52 v -1.2 l -0.06,-1.32 v -1.26 l 0.12,-1.26 0.06,-0.3 c 0.446,-1.059 0.917,-2.654 1.02,-3.78 l 0.06,-0.9 0.06,-1.02 c 0.21,-7.237 0.163,-14.48 0.3,-21.72 v -2.22"
       style="fill:none;stroke:#008080 ;stroke-width:0.932;stroke-linecap:round;stroke-linejoin:round;stroke-miterlimit:10;stroke-dasharray:none;stroke-opacity:1"
       transform="matrix(1.3333333,0,0,-1.3333333,551.44,704.56)" />
    <path
       id="path281"
       d="m 0,0 v -1.2 c 0.172,-15.215 0.317,-30.443 0.42,-45.66 l 0.06,-3.18"
       style="fill:none;stroke:#008080 ;stroke-width:0.932;stroke-linecap:round;stroke-linejoin:round;stroke-miterlimit:10;stroke-dasharray:none;stroke-opacity:1"
       transform="matrix(1.3333333,0,0,-1.3333333,602.15999,836.23999)"
       clip-path="url(#clipPath282)" />
    <path
       id="path283"
       d="M 0,0 0.24,-24.96 0.36,-37.5 0.6,-49.98"
       style="fill:none;stroke:#008080 ;stroke-width:0.932;stroke-linecap:round;stroke-linejoin:round;stroke-miterlimit:10;stroke-dasharray:none;stroke-opacity:1"
       transform="matrix(1.3333333,0,0,-1.3333333,602.80001,902.96)"
       clip-path="url(#clipPath284)" />
    <path
       id="path285"
       d="m 0,0 4.32,-0.48 c 9.448,-0.965 18.714,-1.829 28.14,-3.06 l 1.92,-0.24"
       style="fill:none;stroke:#0000ff ;stroke-width:0.932;stroke-linecap:round;stroke-linejoin:round;stroke-miterlimit:10;stroke-dasharray:none;stroke-opacity:1"
       transform="matrix(1.3333333,0,0,-1.3333333,486.71999,704.56)"
       clip-path="url(#clipPath286)" />
    <path
       id="path287"
       d="m 0,0 3.78,-0.6 c 7.338,-1.145 14.655,-2.445 21.9,-4.08 l 1.38,-0.3 2.7,-0.66 c 4.235,-0.82 9.057,-2.373 13.2,-3.72 l 1.62,-0.66 0.72,-0.3 c 2.763,-1.07 4.16,-2.149 6.36,-4.08 l 0.66,-0.6 0.66,-0.66 c 0.836,-0.912 1.413,-2.003 1.92,-3.12 l 0.48,-1.26 0.18,-0.66 0.12,-0.54 0.12,-0.66 0.06,-0.6 v -2.52 -1.2 l -0.06,-1.26 -0.06,-1.26 -0.18,-1.26 -0.24,-1.32 -0.36,-1.2 -0.36,-1.26 -0.3,-1.26 -0.24,-1.2 -0.24,-1.26 -0.12,-1.26 -0.24,-1.2 -0.6,-2.52 -0.66,-2.52 -0.42,-1.32 -0.48,-1.2 -0.48,-1.26 -0.18,-0.6 -0.12,-0.66 -0.06,-0.6 -0.06,-0.6 v -1.26 l 0.12,-1.26 0.06,-1.2 0.48,-5.04 v -1.2 l -0.06,-1.32 -0.06,-1.26 0.06,-1.26 0.06,-0.3 c 0.125,-1.272 0.748,-2.547 0.6,-3.78 l 0.06,-0.9 v -1.02 c 0.261,-7.198 0.091,-14.52 0.24,-21.72 v -2.22"
       style="fill:none;stroke:#0000ff ;stroke-width:0.932;stroke-linecap:round;stroke-linejoin:round;stroke-miterlimit:10;stroke-dasharray:none;stroke-opacity:1"
       transform="matrix(1.3333333,0,0,-1.3333333,532.56,709.6)" />
    <path
       id="path288"
       d="m 0,0 v -1.2 c 0.142,-15.216 0.24,-30.441 0.36,-45.66 l 0.06,-3.18"
       style="fill:none;stroke:#0000ff ;stroke-width:0.932;stroke-linecap:round;stroke-linejoin:round;stroke-miterlimit:10;stroke-dasharray:none;stroke-opacity:1"
       transform="matrix(1.3333333,0,0,-1.3333333,601.84001,836.23999)"
       clip-path="url(#clipPath289)" />
    <path
       id="path290"
       d="M 0,0 0.3,-24.96 0.48,-37.5 0.72,-49.98"
       style="fill:none;stroke:#0000ff ;stroke-width:0.932;stroke-linecap:round;stroke-linejoin:round;stroke-miterlimit:10;stroke-dasharray:none;stroke-opacity:1"
       transform="matrix(1.3333333,0,0,-1.3333333,602.4,902.96)"
       clip-path="url(#clipPath291)" />
    <path
       id="path292"
       d="M 0,0 1.08,-0.48 C 3.274,-1.45 5.59,-2.335 7.8,-3.3 l 1.44,-0.48 1.56,-0.6 c 3.007,-1.126 6.186,-2.087 9.24,-3.12 l 4.02,-1.26 1.02,-0.3 c 5.148,-1.533 10.849,-2.779 15.9,-4.44 l 0.96,-0.3 1.8,-0.6 c 3.108,-0.984 6.063,-2.378 9,-3.78 l 1.26,-0.6 1.14,-0.66 c 1.897,-1.067 2.874,-1.825 4.56,-3.12 l 1.44,-1.26 0.72,-0.66 0.6,-0.54 0.54,-0.66 0.54,-0.6 0.96,-1.26 0.84,-1.26 0.78,-1.2 0.66,-1.26 0.48,-1.26 0.42,-1.26 0.18,-0.66 0.06,-0.66 0.12,-1.2 0.06,-1.26 0.06,-1.26 0.12,-1.2 0.18,-1.26 0.18,-1.26 v -1.2 l -0.12,-1.26 -0.18,-1.26 -0.24,-1.26 -0.3,-1.26 -0.18,-0.66 -0.24,-0.66 -0.48,-1.2 -0.48,-1.26 -0.24,-0.6 -0.12,-0.66 -0.12,-0.6 v -0.6 l -0.06,-1.26 0.06,-1.26 0.06,-1.2 0.06,-1.26 0.36,-3.78 0.18,-3.78 0.12,-1.26 0.06,-0.3 c 0.29,-1.43 0.408,-2.297 0.48,-3.78 l 0.06,-0.9 v -1.02 c 0.22,-7.217 0.072,-14.484 0.18,-21.72 v -2.22"
       style="fill:none;stroke:#00ccff ;stroke-width:0.932;stroke-linecap:round;stroke-linejoin:round;stroke-miterlimit:10;stroke-dasharray:none;stroke-opacity:1"
       transform="matrix(1.3333333,0,0,-1.3333333,511.92,704.56)" />
    <path
       id="path293"
       d="m 0,0 v -1.2 c 0.014,-15.22 0.083,-30.44 0.12,-45.66 l 0.06,-3.18"
       style="fill:none;stroke:#00ccff ;stroke-width:0.932;stroke-linecap:round;stroke-linejoin:round;stroke-miterlimit:10;stroke-dasharray:none;stroke-opacity:1"
       transform="matrix(1.3333333,0,0,-1.3333333,601.92,836.23999)"
       clip-path="url(#clipPath294)" />
    <path
       id="path295"
       d="m 0,0 0.18,-12.48 0.24,-12.48 0.3,-12.54 0.3,-12.48"
       style="fill:none;stroke:#00ccff ;stroke-width:0.932;stroke-linecap:round;stroke-linejoin:round;stroke-miterlimit:10;stroke-dasharray:none;stroke-opacity:1"
       transform="matrix(1.3333333,0,0,-1.3333333,602.15999,902.96)"
       clip-path="url(#clipPath296)" />
    <path
       id="path297"
       d="m 0,0 -1.2,-0.24 c -5.559,-1.168 -10.993,-1.594 -16.44,-3.3 l -0.72,-0.24 -0.48,-0.24 c -1.447,-0.988 -2.159,-2.429 -1.92,-4.2 l 0.12,-0.54 0.12,-0.3 c 0.913,-1.457 3.689,-3.092 5.04,-4.08 l 0.84,-0.66 1.56,-1.2 1.62,-1.26 1.62,-1.32 1.56,-1.2 1.38,-1.32 1.38,-1.2 1.26,-1.26 1.2,-1.26 1.14,-1.2 1.92,-2.52 0.9,-1.26 1.02,-1.2 1.8,-2.52 0.84,-1.26 0.6,-1.32 0.54,-1.2 0.96,-2.52 0.96,-2.46 0.48,-1.26 0.42,-1.2 0.3,-1.26 0.18,-1.26 0.42,-2.52 0.3,-2.52 0.24,-2.52 0.06,-1.2 v -3.72 l 0.06,-2.52 0.12,-2.52 0.12,-1.2 0.18,-1.32 0.36,-2.52 0.06,-0.3 c 0.112,-1.278 0.11,-2.558 0.18,-3.84 v -0.84 -1.02 c 0.169,-7.228 0.175,-14.49 0.3,-21.72 v -2.22"
       style="fill:none;stroke:#ff9acc ;stroke-width:0.932;stroke-linecap:round;stroke-linejoin:round;stroke-miterlimit:10;stroke-dasharray:none;stroke-opacity:1"
       transform="matrix(1.3333333,0,0,-1.3333333,586.71999,704.56)" />
    <path
       id="path298"
       d="m 0,0 v -1.2 c 0.142,-15.216 0.24,-30.441 0.36,-45.66 l 0.06,-3.18"
       style="fill:none;stroke:#ff9acc ;stroke-width:0.932;stroke-linecap:round;stroke-linejoin:round;stroke-miterlimit:10;stroke-dasharray:none;stroke-opacity:1"
       transform="matrix(1.3333333,0,0,-1.3333333,601.92,836.23999)"
       clip-path="url(#clipPath299)" />
    <path
       id="path300"
       d="M 0,0 0.12,-12.48 0.3,-24.96 0.48,-37.5 0.78,-49.98"
       style="fill:none;stroke:#ff9acc ;stroke-width:0.932;stroke-linecap:round;stroke-linejoin:round;stroke-miterlimit:10;stroke-dasharray:none;stroke-opacity:1"
       transform="matrix(1.3333333,0,0,-1.3333333,602.48,902.96)"
       clip-path="url(#clipPath301)" />
    <path
       id="path302"
       d="m 0,0 -2.46,-0.96 -2.4,-0.84 -1.2,-0.48 -1.32,-0.48 -1.26,-0.54 -1.44,-0.48 -1.26,-0.54 c -3.229,-1.644 -6.485,-3.27 -10.02,-4.14 l -1.2,-0.3 -0.66,-0.18 c -9.24,-1.885 -18.699,-2.594 -27.9,-4.68 l -0.6,-0.18 -0.72,-0.24 c -1.839,-0.446 -4.546,-2.613 -5.28,-4.32 l -0.36,-0.42 -0.36,-0.66 c -0.443,-0.773 -0.467,-2.294 -0.24,-3.12 l 0.24,-1.26 0.18,-0.66 0.24,-0.54 0.3,-0.66 0.24,-0.6 1.44,-2.52 0.72,-1.2 1.44,-2.52 0.66,-1.26 0.6,-1.32 0.54,-1.2 1.02,-2.52 1.14,-2.46 0.54,-1.26 0.48,-1.2 0.36,-1.26 0.42,-1.26 0.78,-2.52 0.42,-1.32 0.36,-1.2 0.42,-1.26 0.3,-1.26 0.18,-1.2 0.12,-2.52 v -1.2 -1.26 l -0.12,-2.52 0.06,-1.26 0.12,-1.2 0.24,-1.32 0.24,-1.26 0.18,-1.26 0.06,-0.3 c 0.112,-1.278 0.11,-2.558 0.18,-3.84 v -0.84 -1.02 c 0.25,-7.236 0.357,-14.479 0.48,-21.72 v -2.22"
       style="fill:none;stroke:#ff0000 ;stroke-width:0.932;stroke-linecap:round;stroke-linejoin:round;stroke-miterlimit:10;stroke-dasharray:none;stroke-opacity:1"
       transform="matrix(1.3333333,0,0,-1.3333333,660.96,704.56)" />
    <path
       id="path303"
       d="m 0,0 v -1.2 c 0.192,-15.211 0.089,-30.45 0.3,-45.66 v -3.18"
       style="fill:none;stroke:#ff0000 ;stroke-width:0.932;stroke-linecap:round;stroke-linejoin:round;stroke-miterlimit:10;stroke-dasharray:none;stroke-opacity:1"
       transform="matrix(1.3333333,0,0,-1.3333333,602.15999,836.23999)"
       clip-path="url(#clipPath304)" />
    <path
       id="path305"
       d="M 0,0 0.12,-12.48 0.18,-24.96 0.36,-37.5 0.6,-49.98"
       style="fill:none;stroke:#ff0000 ;stroke-width:0.932;stroke-linecap:round;stroke-linejoin:round;stroke-miterlimit:10;stroke-dasharray:none;stroke-opacity:1"
       transform="matrix(1.3333333,0,0,-1.3333333,602.56,902.96)"
       clip-path="url(#clipPath306)" />
    <text
       id="text306"
       xml:space="preserve"
       transform="matrix(1.3333333,0,0,1.3334291,467.92,906.9596)"><tspan
         style="font-variant:normal;font-weight:normal;font-stretch:normal;font-size:9.743px;font-family:'Times New Roman';writing-mode:lr-tb;fill:#000000;fill-opacity:1;fill-rule:nonzero;stroke:none"
         x="0 3.2395475 8.154891"
         y="0"
         id="tspan306">-30</tspan><tspan
         style="font-variant:normal;font-weight:normal;font-stretch:normal;font-size:9.743px;font-family:'Times New Roman';writing-mode:lr-tb;fill:#000000;fill-opacity:1;fill-rule:nonzero;stroke:none"
         x="0 3.2395475 8.154891"
         y="-24.961567"
         id="tspan307">-25</tspan><tspan
         style="font-variant:normal;font-weight:normal;font-stretch:normal;font-size:9.743px;font-family:'Times New Roman';writing-mode:lr-tb;fill:#000000;fill-opacity:1;fill-rule:nonzero;stroke:none"
         x="0 3.2395475 8.154891"
         y="-49.98159"
         id="tspan308">-20</tspan><tspan
         style="font-variant:normal;font-weight:normal;font-stretch:normal;font-size:9.743px;font-family:'Times New Roman';writing-mode:lr-tb;fill:#000000;fill-opacity:1;fill-rule:nonzero;stroke:none"
         x="0 3.2395475 8.154891"
         y="-75.001617"
         id="tspan309">-15</tspan><tspan
         style="font-variant:normal;font-weight:normal;font-stretch:normal;font-size:9.743px;font-family:'Times New Roman';writing-mode:lr-tb;fill:#000000;fill-opacity:1;fill-rule:nonzero;stroke:none"
         x="0 3.2395475 8.154891"
         y="-100.02164"
         id="tspan310">-10</tspan><tspan
         style="font-variant:normal;font-weight:normal;font-stretch:normal;font-size:9.743px;font-family:'Times New Roman';writing-mode:lr-tb;fill:#000000;fill-opacity:1;fill-rule:nonzero;stroke:none"
         x="4.9202151 8.1597624"
         y="-124.9832"
         id="tspan311">-5</tspan><tspan
         style="font-variant:normal;font-weight:normal;font-stretch:normal;font-size:9.743px;font-family:'Times New Roman';writing-mode:lr-tb;fill:#000000;fill-opacity:1;fill-rule:nonzero;stroke:none"
         x="8.1646338"
         y="-150.00323"
         id="tspan312">0</tspan><tspan
         style="font-variant:normal;font-weight:normal;font-stretch:normal;font-size:9.743px;font-family:'Times New Roman';writing-mode:lr-tb;fill:#000000;fill-opacity:1;fill-rule:nonzero;stroke:none"
         x="15.481627 20.341434 57.060852 61.979118 98.756996 103.61681 140.33623 145.25449 181.97391 186.83371"
         y="14.380668"
         id="tspan313">1015202530</tspan><tspan
         style="font-variant:normal;font-weight:normal;font-stretch:normal;font-size:9.743px;font-family:'Times New Roman';writing-mode:lr-tb;fill:#000000;fill-opacity:1;fill-rule:nonzero;stroke:none"
         x="69.906029 75.85218 80.171249 87.676285 92.599419 96.918495 100.15609 104.47517 107.1769 112.04158 115.33763 119.65671"
         y="26.676334"
         id="tspan314">Temperature,</tspan><tspan
         style="font-variant:normal;font-weight:normal;font-stretch:normal;font-size:9.743px;font-family:Bahnschrift;writing-mode:lr-tb;fill:#000000;fill-opacity:1;fill-rule:nonzero;stroke:none"
         x="122.10902"
         y="26.734793"
         id="tspan315">˚</tspan><tspan
         style="font-variant:normal;font-weight:normal;font-stretch:normal;font-size:9.743px;font-family:'Times New Roman';writing-mode:lr-tb;fill:#000000;fill-opacity:1;fill-rule:nonzero;stroke:none"
         x="125.10986"
         y="26.676334"
         id="tspan316">C</tspan></text>
    <text
       id="text316"
       xml:space="preserve"
       transform="matrix(0,-1.3333333,1.3334291,0,461.52,827.0396)"><tspan
         style="font-variant:normal;font-weight:normal;font-stretch:normal;font-size:9.743px;font-family:'Times New Roman';writing-mode:lr-tb;fill:#000000;fill-opacity:1;fill-rule:nonzero;stroke:none"
         x="0 7.0373688 11.366184 16.289322 18.991056 23.865479 26.304152 28.764259"
         y="0"
         id="tspan317">Depth, m</tspan></text>
    <path
       id="path317"
       d="M 0,0 H 17.52"
       style="fill:none;stroke:#000080 ;stroke-width:0.932;stroke-linecap:round;stroke-linejoin:round;stroke-miterlimit:10;stroke-dasharray:none;stroke-opacity:1"
       transform="matrix(1.3333333,0,0,-1.3333333,630,742.96)" />
    <text
       id="text317"
       xml:space="preserve"
       transform="matrix(1.3333333,0,0,1.3334536,655.83987,746.7196)"><tspan
         style="font-variant:normal;font-weight:normal;font-stretch:normal;font-size:7.7592px;font-family:'Times New Roman';writing-mode:lr-tb;fill:#000000;fill-opacity:1;fill-rule:nonzero;stroke:none"
         x="0 3.8966703 7.7933407 10.394224 13.429624 17.326294 21.222963 23.823847 27.720518"
         y="0"
         id="tspan318">21-Jun-10</tspan></text>
    <path
       id="path318"
       d="M 0,0 H 17.52"
       style="fill:none;stroke:#ff00ff ;stroke-width:0.932;stroke-linecap:round;stroke-linejoin:round;stroke-miterlimit:10;stroke-dasharray:none;stroke-opacity:1"
       transform="matrix(1.3333333,0,0,-1.3333333,630,758.08)" />
    <text
       id="text318"
       xml:space="preserve"
       transform="matrix(1.3333333,0,0,1.3334536,655.83987,761.91947)"><tspan
         style="font-variant:normal;font-weight:normal;font-stretch:normal;font-size:7.7592px;font-family:'Times New Roman';writing-mode:lr-tb;fill:#000000;fill-opacity:1;fill-rule:nonzero;stroke:none"
         x="0 3.8951185 7.7902369 10.389568 13.423416 17.318535 19.49111 22.090443 25.985561"
         y="0"
         id="tspan319">21-Jul-10</tspan></text>
    <path
       id="path319"
       d="M 0,0 H 17.52"
       style="fill:none;stroke:#ffff00 ;stroke-width:0.932;stroke-linecap:round;stroke-linejoin:round;stroke-miterlimit:10;stroke-dasharray:none;stroke-opacity:1"
       transform="matrix(1.3333333,0,0,-1.3333333,630,773.36001)" />
    <text
       id="text319"
       xml:space="preserve"
       transform="matrix(1.3333333,0,0,1.3334536,655.83987,777.1196)"><tspan
         style="font-variant:normal;font-weight:normal;font-stretch:normal;font-size:7.7592px;font-family:'Times New Roman';writing-mode:lr-tb;fill:#000000;fill-opacity:1;fill-rule:nonzero;stroke:none"
         x="0 3.8951185 7.7902369 10.389568 16.007229 19.902348 23.797466 26.396799 30.291916"
         y="0"
         id="tspan320">21-Aug-10</tspan></text>
    <path
       id="path320"
       d="M 0,0 H 17.52"
       style="fill:none;stroke:#00ffff ;stroke-width:0.932;stroke-linecap:round;stroke-linejoin:round;stroke-miterlimit:10;stroke-dasharray:none;stroke-opacity:1"
       transform="matrix(1.3333333,0,0,-1.3333333,630,788.48)" />
    <text
       id="text320"
       xml:space="preserve"
       transform="matrix(1.3333333,0,0,1.3334536,655.83987,792.3196)"><tspan
         style="font-variant:normal;font-weight:normal;font-stretch:normal;font-size:7.7592px;font-family:'Times New Roman';writing-mode:lr-tb;fill:#000000;fill-opacity:1;fill-rule:nonzero;stroke:none"
         x="0 3.898222 7.7964439 10.375602 14.692822 18.109972 22.070269 24.587353 28.547649"
         y="0"
         id="tspan321">21-Sep-10</tspan></text>
    <path
       id="path321"
       d="M 0,0 H 17.52"
       style="fill:none;stroke:#800080 ;stroke-width:0.932;stroke-linecap:round;stroke-linejoin:round;stroke-miterlimit:10;stroke-dasharray:none;stroke-opacity:1"
       transform="matrix(1.3333333,0,0,-1.3333333,630,803.76001)" />
    <text
       id="text321"
       xml:space="preserve"
       transform="matrix(1.3333333,0,0,1.3334536,655.83987,807.51947)"><tspan
         style="font-variant:normal;font-weight:normal;font-stretch:normal;font-size:7.7592px;font-family:'Times New Roman';writing-mode:lr-tb;fill:#000000;fill-opacity:1;fill-rule:nonzero;stroke:none"
         x="0 3.8966703 7.7933407 10.394224 16.013437 19.436796 21.610924 24.211807 28.108479"
         y="0"
         id="tspan322">21-Oct-10</tspan></text>
    <path
       id="path322"
       d="M 0,0 H 17.52"
       style="fill:none;stroke:#800000 ;stroke-width:0.932;stroke-linecap:round;stroke-linejoin:round;stroke-miterlimit:10;stroke-dasharray:none;stroke-opacity:1"
       transform="matrix(1.3333333,0,0,-1.3333333,630,818.96)" />
    <text
       id="text322"
       xml:space="preserve"
       transform="matrix(1.3333333,0,0,1.3334536,655.83987,822.7196)"><tspan
         style="font-variant:normal;font-weight:normal;font-stretch:normal;font-size:7.7592px;font-family:'Times New Roman';writing-mode:lr-tb;fill:#000000;fill-opacity:1;fill-rule:nonzero;stroke:none"
         x="0 3.8958943 7.7917886 10.391896 16.010334 19.906227 23.802122 26.402229 30.298124"
         y="0"
         id="tspan323">16-Nov-10</tspan></text>
    <path
       id="path323"
       d="M 0,0 H 17.52"
       style="fill:none;stroke:#008080 ;stroke-width:0.932;stroke-linecap:round;stroke-linejoin:round;stroke-miterlimit:10;stroke-dasharray:none;stroke-opacity:1"
       transform="matrix(1.3333333,0,0,-1.3333333,630,834.15999)" />
    <text
       id="text323"
       xml:space="preserve"
       transform="matrix(1.3333333,0,0,1.3334536,655.83987,837.9996)"><tspan
         style="font-variant:normal;font-weight:normal;font-stretch:normal;font-size:7.7592px;font-family:'Times New Roman';writing-mode:lr-tb;fill:#000000;fill-opacity:1;fill-rule:nonzero;stroke:none"
         x="0 3.8935666 6.4913468 12.06866 15.550988 18.971245 21.553505 25.447073"
         y="0"
         id="tspan324">7-Dec-10</tspan></text>
    <path
       id="path324"
       d="M 0,0 H 17.52"
       style="fill:none;stroke:#0000ff ;stroke-width:0.932;stroke-linecap:round;stroke-linejoin:round;stroke-miterlimit:10;stroke-dasharray:none;stroke-opacity:1"
       transform="matrix(1.3333333,0,0,-1.3333333,630,849.36001)" />
    <text
       id="text324"
       xml:space="preserve"
       transform="matrix(1.3333333,0,0,1.3334536,655.83987,853.1196)"><tspan
         style="font-variant:normal;font-weight:normal;font-stretch:normal;font-size:7.7592px;font-family:'Times New Roman';writing-mode:lr-tb;fill:#000000;fill-opacity:1;fill-rule:nonzero;stroke:none"
         x="0 3.898998 7.797996 10.401208 13.438934 16.856861 20.755859 23.359072 27.25807"
         y="0"
         id="tspan325">11-Jan-11</tspan></text>
    <path
       id="path325"
       d="M 0,0 H 17.52"
       style="fill:none;stroke:#00ccff ;stroke-width:0.932;stroke-linecap:round;stroke-linejoin:round;stroke-miterlimit:10;stroke-dasharray:none;stroke-opacity:1"
       transform="matrix(1.3333333,0,0,-1.3333333,630,864.56)" />
    <text
       id="text325"
       xml:space="preserve"
       transform="matrix(1.3333333,0,0,1.3334536,655.83987,868.3996)"><tspan
         style="font-variant:normal;font-weight:normal;font-stretch:normal;font-size:7.7592px;font-family:'Times New Roman';writing-mode:lr-tb;fill:#000000;fill-opacity:1;fill-rule:nonzero;stroke:none"
         x="0 3.898222 7.7964439 10.375602 14.692822 18.109972 22.070269 24.587353 28.547649"
         y="0"
         id="tspan326">24-Feb-11</tspan></text>
    <path
       id="path326"
       d="M 0,0 H 17.52"
       style="fill:none;stroke:#ff9acc ;stroke-width:0.932;stroke-linecap:round;stroke-linejoin:round;stroke-miterlimit:10;stroke-dasharray:none;stroke-opacity:1"
       transform="matrix(1.3333333,0,0,-1.3333333,630,879.76001)" />
    <text
       id="text326"
       xml:space="preserve"
       transform="matrix(1.3333333,0,0,1.3334536,655.83987,883.5996)"><tspan
         style="font-variant:normal;font-weight:normal;font-stretch:normal;font-size:7.7592px;font-family:'Times New Roman';writing-mode:lr-tb;fill:#000000;fill-opacity:1;fill-rule:nonzero;stroke:none"
         x="0 3.898998 7.797996 10.401208 16.022749 19.921745 22.439606 25.019541 28.918539"
         y="0"
         id="tspan327">20-Apr-11</tspan></text>
    <path
       id="path327"
       d="M 0,0 H 17.52"
       style="fill:none;stroke:#ff0000 ;stroke-width:0.932;stroke-linecap:round;stroke-linejoin:round;stroke-miterlimit:10;stroke-dasharray:none;stroke-opacity:1"
       transform="matrix(1.3333333,0,0,-1.3333333,630,895.04)" />
    <text
       id="text327"
       xml:space="preserve"
       transform="matrix(1.3333333,0,0,1.3334536,655.83987,898.7996)"><tspan
         style="font-variant:normal;font-weight:normal;font-stretch:normal;font-size:7.7592px;font-family:'Times New Roman';writing-mode:lr-tb;fill:#000000;fill-opacity:1;fill-rule:nonzero;stroke:none"
         x="0 3.8904629 7.7809258 10.375602 17.284393 20.701546 24.537695 27.116852 31.007315"
         y="0"
         id="tspan328">21-May-11</tspan></text>
  </g>
</svg>
