<?xml version="1.0" encoding="UTF-8" standalone="no"?>
<svg
   version="1.1"
   width="988.771"
   height="357.51199"
   id="svg762"
   sodipodi:docname="ruscorpora.svg"
   viewBox="-10 -10 988.771 357.512"
   inkscape:version="1.3.2 (091e20e, 2023-11-25, custom)"
   xmlns:inkscape="http://www.inkscape.org/namespaces/inkscape"
   xmlns:sodipodi="http://sodipodi.sourceforge.net/DTD/sodipodi-0.dtd"
   xmlns="http://www.w3.org/2000/svg"
   xmlns:svg="http://www.w3.org/2000/svg">
  <sodipodi:namedview
     id="namedview762"
     pagecolor="#ffffff"
     bordercolor="#000000"
     borderopacity="0.25"
     inkscape:showpageshadow="2"
     inkscape:pageopacity="0.0"
     inkscape:pagecheckerboard="0"
     inkscape:deskcolor="#d1d1d1"
     inkscape:zoom="1.0882629"
     inkscape:cx="458.06946"
     inkscape:cy="175.04961"
     inkscape:window-width="1920"
     inkscape:window-height="1009"
     inkscape:window-x="-8"
     inkscape:window-y="-8"
     inkscape:window-maximized="1"
     inkscape:current-layer="svg762" />
  <path
     d="M 40.046876,319.1003 H 967.77147"
     fill="transparent"
     stroke="#e0e6f1"
     id="path1" />
  <path
     d="M 40.046876,259.1003 H 967.77147"
     fill="transparent"
     stroke="#e0e6f1"
     id="path2" />
  <path
     d="M 40.046876,199.1003 H 967.77147"
     fill="transparent"
     stroke="#e0e6f1"
     id="path3" />
  <path
     d="M 40.046876,140.1003 H 967.77147"
     fill="transparent"
     stroke="#e0e6f1"
     id="path4" />
  <path
     d="M 40.046876,80.1003 H 967.77147"
     fill="transparent"
     stroke="#e0e6f1"
     id="path5" />
  <path
     d="M 40.046876,20.1003 H 967.77147"
     fill="transparent"
     stroke="#e0e6f1"
     id="path6" />
  <path
     d="M 40.046876,6.1003 H 967.77147"
     fill="transparent"
     stroke="#e0e6f1"
     id="path7" />
  <path
     d="M 40.046876,319.1003 H 967.77147"
     fill="transparent"
     stroke="#6e7079"
     stroke-linecap="round"
     id="path10" />
  <path
     d="m 40.271476,318.6003 v 5"
     fill="transparent"
     stroke="#6e7079"
     id="path11" />
  <path
     d="m 196.27148,318.6003 v 5"
     fill="transparent"
     stroke="#6e7079"
     id="path12" />
  <path
     d="m 352.27148,318.6003 v 5"
     fill="transparent"
     stroke="#6e7079"
     id="path13" />
  <path
     d="m 508.27148,318.6003 v 5"
     fill="transparent"
     stroke="#6e7079"
     id="path14" />
  <path
     d="m 664.27148,318.6003 v 5"
     fill="transparent"
     stroke="#6e7079"
     id="path15" />
  <path
     d="m 820.27148,318.6003 v 5"
     fill="transparent"
     stroke="#6e7079"
     id="path16" />
  <path
     d="m 968.27147,318.6003 v 5"
     fill="transparent"
     stroke="#6e7079"
     id="path17" />
  <text
     dominant-baseline="central"
     text-anchor="end"
     xml:space="preserve"
     fill="#6e7079"
     style="font-size:14px;font-family:monospace"
     id="text17"
     x="32.046875"
     y="318.60031">0</text>
  <text
     dominant-baseline="central"
     text-anchor="end"
     xml:space="preserve"
     fill="#6e7079"
     style="font-size:14px;font-family:monospace"
     id="text18"
     x="32.046875"
     y="258.8624">200</text>
  <text
     dominant-baseline="central"
     text-anchor="end"
     xml:space="preserve"
     fill="#6e7079"
     style="font-size:14px;font-family:monospace"
     id="text19"
     x="32.046875"
     y="199.1245">400</text>
  <text
     dominant-baseline="central"
     text-anchor="end"
     xml:space="preserve"
     fill="#6e7079"
     style="font-size:14px;font-family:monospace"
     id="text20"
     x="32.046875"
     y="139.3866">600</text>
  <text
     dominant-baseline="central"
     text-anchor="end"
     xml:space="preserve"
     fill="#6e7079"
     style="font-size:14px;font-family:monospace"
     id="text21"
     x="32.046875"
     y="79.648705">800</text>
  <text
     dominant-baseline="central"
     text-anchor="end"
     xml:space="preserve"
     fill="#6e7079"
     style="font-size:14px;font-family:monospace"
     id="text22"
     x="32.046875"
     y="19.910799">1000</text>
  <text
     dominant-baseline="central"
     text-anchor="end"
     xml:space="preserve"
     fill="#6e7079"
     style="font-size:14px;font-family:monospace"
     id="text23"
     x="32.046875"
     y="5.6002998">1048</text>
  <text
     dominant-baseline="central"
     text-anchor="start"
     y="333.60031"
     fill="#6e7079"
     style="font-style:normal;font-variant:normal;font-weight:normal;font-stretch:normal;font-size:14px;line-height:normal;font-family:monospace"
     id="text24"
     x="40.046875">1682</text>
  <text
     dominant-baseline="central"
     text-anchor="middle"
     y="333.60031"
     fill="#6e7079"
     style="font-style:normal;font-variant:normal;font-weight:normal;font-stretch:normal;font-size:14px;line-height:normal;font-family:monospace"
     id="text25"
     x="196.03009">1739</text>
  <text
     dominant-baseline="central"
     text-anchor="middle"
     y="333.60031"
     fill="#6e7079"
     style="font-style:normal;font-variant:normal;font-weight:normal;font-stretch:normal;font-size:14px;line-height:normal;font-family:monospace"
     id="text26"
     x="352.02078">1796</text>
  <text
     dominant-baseline="central"
     text-anchor="middle"
     y="333.60031"
     fill="#6e7079"
     style="font-style:normal;font-variant:normal;font-weight:normal;font-stretch:normal;font-size:14px;line-height:normal;font-family:monospace"
     id="text27"
     x="508.0116">1853</text>
  <text
     dominant-baseline="central"
     text-anchor="middle"
     y="333.60031"
     fill="#6e7079"
     style="font-style:normal;font-variant:normal;font-weight:normal;font-stretch:normal;font-size:14px;line-height:normal;font-family:monospace"
     id="text28"
     x="663.99487">1910</text>
  <text
     dominant-baseline="central"
     text-anchor="middle"
     y="333.60031"
     fill="#6e7079"
     style="font-style:normal;font-variant:normal;font-weight:normal;font-stretch:normal;font-size:14px;line-height:normal;font-family:monospace"
     id="text29"
     x="819.98529">1967</text>
  <text
     dominant-baseline="central"
     text-anchor="end"
     y="333.60031"
     fill="#6e7079"
     style="font-style:normal;font-variant:normal;font-weight:normal;font-stretch:normal;font-size:14px;line-height:normal;font-family:monospace"
     id="text30"
     x="967.77148">2021</text>
  <g
     clip-path="url(#zr0-c0)"
     id="g710"
     transform="translate(-82.228524,-9.3997)">
    <path
       d="m 122.2754,328 h 2.7348 2.7349 2.7423 2.7348 2.7349 2.7348 2.7423 2.7349 2.7348 2.7349 2.7423 2.7348 2.7349 2.7348 2.7423 2.7349 2.7348 2.7349 2.7348 2.7348 2.7349 2.7348 2.7424 2.7348 2.7348 2.7349 2.7423 2.7348 2.7349 2.7348 2.7423 2.7349 2.7348 2.7349 2.7423 2.7348 l 2.7349,-3.0905 h 2.7348 2.7423 2.7349 2.7348 2.7349 2.7423 2.7348 2.7349 2.7348 2.7423 l 2.7349,3.0905 2.7348,-2.1329 h 2.7349 2.7423 2.7348 2.7349 2.7348 2.7423 2.7349 2.7348 2.7349 2.7423 L 286.4706,328 h 2.7349 2.7348 2.7423 2.7349 2.7348 2.7348 2.7424 2.7348 2.7349 2.7348 2.7423 2.7349 2.7348 2.7349 2.7423 2.7348 l 2.7349,-0.1312 2.7348,-0.2757 2.7423,-0.0617 2.7349,-0.3585 2.7348,-0.163 h 2.7349 2.7423 l 2.7348,-0.2257 2.7349,-0.1978 2.7348,-0.3084 h 2.7423 l 2.7349,-0.0601 2.7348,0.2667 2.7348,0.0561 2.7424,0.3432 2.7348,0.1547 2.7349,-0.0248 2.7348,-0.049 2.7423,-0.077 2.7349,0.1865 2.7348,0.2391 2.7348,-0.0462 2.7424,-0.0869 2.7348,-0.0116 2.7349,-0.0242 2.7348,-0.1658 2.7423,-0.6188 2.7349,-0.5168 2.7348,0.0148 2.7349,0.1613 2.7423,-0.2345 2.7348,-0.1549 2.7349,0.011 2.7348,0.2405 2.7423,-0.007 2.7349,-0.006 2.7348,0.1633 2.7348,0.5914 2.7424,0.5236 2.7348,0.009 2.7349,0.0998 2.7348,0.2168 2.7348,0.1962 2.7349,0.0144 2.7348,0.0227 2.7349,-0.0267 2.7423,0.0191 2.7348,0.005 2.7349,-0.5203 2.7348,-0.2166 2.7423,-0.127 2.7349,0.0268 2.7348,-0.2544 2.7348,-0.4817 2.7424,0.005 2.7348,-0.007 2.7348,0.0328 2.7349,-0.2695 2.7423,-0.1721 2.7349,0.3087 2.7348,-0.1251 2.7348,-0.1466 2.7424,-0.3812 2.7348,-0.3988 2.7348,-0.0699 2.7349,-0.3221 2.7423,-0.4184 2.7349,-0.1912 2.7348,-0.3918 2.7349,-0.2139 2.7423,-0.0776 2.7348,-0.0529 2.7348,-0.521 2.7349,-0.1985 2.7423,0.1545 2.7349,0.2282 2.7348,0.0124 2.7348,-0.3934 2.7424,-0.7169 2.7348,-0.3975 2.7349,-1.2325 2.7348,-0.6762 2.7423,-1.3715 2.7348,-0.0447 2.7349,-0.8186 2.7349,-0.4716 2.7423,-0.7115 2.7348,-1.5615 2.7348,-1.4202 2.7349,-1.0757 2.7423,-0.4987 2.7349,-0.6756 2.7348,-1.6104 2.7348,-1.0898 2.7424,-1.1263 2.7348,-0.8759 2.7348,-2.5404 2.7349,-3.3645 2.7423,-3.4824 2.7349,-1.7695 2.7348,-4.681 2.7348,-6.6646 2.7424,-2.4572 2.7348,-2.8626 2.7349,-5.3455 2.7348,-5.0844 2.7423,-9.3308 2.7348,-6.2085 2.7349,-3.9663 2.7349,-6.0429 2.7423,-7.1758 2.7348,-3.4856 2.7348,1.0332 2.7349,-3.1759 2.7423,-0.9613 2.7349,0.5484 2.7348,-3.4179 2.7348,4.5464 2.7423,-1.8562 2.7349,-5.0362 2.7348,6.9128 2.7349,3.3828 2.7423,1.7909 2.7348,0.3914 2.7349,0.4985 2.7348,-3.6337 2.7424,-1.3915 2.7348,0.6012 2.7348,-5.1444 2.7348,1.987 2.7424,4.694 2.7348,-8.426 2.7349,-3.7205 2.7348,-1.6282 2.7424,-2.7778 2.7349,-2.1874 2.7348,-6.7314 2.7348,-6.9461 2.7424,-6.4265 2.7348,-0.4891 2.7349,0.725 2.7348,-1.998 2.7348,1.6018 2.7349,1.7161 2.7348,-0.8428 2.7349,-1.4349 2.7423,-8.448 2.7349,7.5262 2.7348,1.9105 2.7348,1.7481 2.7423,2.4533 2.7349,-1.4427 2.7349,0.0328 2.7348,2.56 2.7423,0.5993 2.7348,3.3993 2.7346,4.2137 2.7348,8.8881 2.7424,0.3587 2.7348,4.0153 2.7351,4.0432 2.7348,-2.2591 2.7424,-1.1252 2.7348,0.7474 2.7349,-3.7975 2.7348,-5.1385 2.7423,-5.2741 2.7349,-8.1758 2.7348,-3.7256 2.7349,-3.4934 2.7423,-2.0326 2.7348,-0.1672 2.7348,0.9066 2.7349,-1.3167 2.7423,-1.0079 2.7349,-4.0305 2.7348,2.5623 2.7348,2.8043 2.7424,3.0699 2.7348,-0.3105 2.7349,-1.2692 2.7348,-0.372 2.7417,-4.2309 2.7348,-1.1868 2.7352,2.1094 2.7348,-0.0546 2.7424,7.3901 2.7348,2.9267 2.7349,-5.1587 2.7348,-0.0562 2.7423,-1.2178 2.7349,-1.3203 2.7348,-2.3397 2.7349,3.8613 2.7423,-5.1218 2.7348,-0.8488 2.7348,-3.2757 2.7349,-7.6648 2.7423,-3.2457 2.7349,3.8526 2.7348,-1.7541 2.7348,4.3888 2.7423,4.5473 2.7349,0.1283 2.7349,-3.9592 2.7348,4.4103 2.7423,1.854 2.7348,-1.075 2.7349,4.8023 2.7348,1.9956 2.7424,0.0275 2.7348,2.6074 2.7348,2.1471 2.7349,0.291 2.7423,1.2937 2.7349,2.6658 2.7348,3.4802 2.7348,-6.1867 2.7424,4.193 2.7348,2.8076 2.7348,-1.758 2.7349,1.7859 2.7423,1.8574 2.7349,-1.5179 2.7348,1.2151 2.7348,2.0056 2.7423,0.2199 2.7349,0.5082 2.7349,4.7128 2.7348,1.0047 2.7423,-1.7154 2.7348,2.692 2.7349,-2.3282 2.7348,-1.8385 2.7424,-1.038 2.7348,-0.1837 2.7348,-2.1611 2.7349,2.6856 2.7423,2.029 2.7349,5.4202 2.7348,4.5446 2.7348,-0.8192 2.7423,2.3046 2.7349,2.8543 2.7348,4.3265 2.7349,2.3101 2.7423,0.2883 2.7348,0.483 2.7349,-0.3636 2.7348,-2.0204 2.7423,-1.169 2.7349,-1.6546 2.7349,1.0406 2.7348,2.2514 2.7423,3.8695 2.7349,-3.1445 2.7347,5.7164 2.7349,1.9853 2.7423,5.7679 2.7349,3.0614 2.7348,3.404 2.7349,0.2564 2.7423,1.0635"
       fill="transparent"
       stroke="#1976d2"
       stroke-width="2"
       stroke-linejoin="bevel"
       id="path710"
       style="fill:none" />
  </g>
  <g
     clip-path="url(#zr0-c1)"
     id="g711"
     transform="translate(-82.228524,-9.3997)">
    <path
       d="m 122.2754,320.1391 h 2.7348 2.7349 2.7423 2.7348 2.7349 2.7348 2.7423 2.7349 2.7348 2.7349 l 2.7423,0.0893 2.7348,0.0892 2.7349,0.3145 2.7348,0.3166 2.7423,0.3266 2.7349,0.3145 2.7348,0.3315 2.7349,0.3195 2.7348,0.4635 2.7348,0.3203 2.7349,0.339 2.7348,-0.5706 2.7424,0.2623 2.7348,0.1465 2.7348,0.0349 2.7349,0.025 2.7423,0.0943 2.7348,-0.6802 2.7349,0.1954 2.7348,0.1397 2.7423,0.234 2.7349,0.1189 2.7348,1.0416 2.7349,0.2674 2.7423,0.1819 2.7348,0.3631 2.7349,0.3631 2.7348,0.3059 2.7423,1.0633 2.7349,0.1996 2.7348,0.1115 2.7349,0.1603 2.7423,0.2567 2.7348,0.1544 2.7349,0.0957 2.7348,-0.8057 h 2.7423 2.7349 l 2.7348,-2.1329 h 2.7349 2.7423 2.7348 2.7349 2.7348 l 2.7423,-3.0465 h 2.7349 l 2.7348,0.8774 h 2.7349 2.7423 l 2.7348,2.1329 h 2.7349 2.7348 l 2.7423,-10.6809 2.7349,-0.5917 h 2.7348 l 2.7348,3.0465 h 2.7424 l 2.7348,-0.8537 h 2.7349 l 2.7348,-4.692 2.7423,-8.37 2.7349,-1.8554 2.7348,-0.5761 2.7349,-10.5358 2.7423,-12.6603 2.7348,-5.1863 2.7349,-7.2346 2.7348,-7.4803 2.7423,-7.218 2.7349,-8.9511 2.7348,-1.4433 2.7349,4.3704 2.7423,-2.2893 2.7348,-1.0473 2.7349,19.1013 2.7348,11.805 2.7423,1.5433 2.7349,3.5331 2.7348,5.8521 2.7348,3.4399 2.7424,-6.079 2.7348,-6.9366 2.7349,-4.5732 2.7348,-9.9629 2.7423,-25.5575 2.7349,-5.2667 2.7348,-5.6998 2.7348,-7.6257 2.7424,-3.898 2.7348,-16.3445 2.7349,-16.9405 2.7348,-2.7332 2.7423,8.8658 2.7349,-1.676 2.7348,-1.8853 2.7349,2.4064 2.7423,-42.2539 2.7348,-19.7541 2.7349,-0.4157 2.7348,1.7899 2.7423,3.2704 2.7349,16.2736 2.7348,9.1364 2.7348,-0.4123 2.7424,-4.2869 2.7348,7.605 2.7349,15.0588 2.7348,45.1513 2.7348,10.1495 2.7349,-2.6088 2.7348,-5.1563 2.7349,7.9893 2.7423,-17.2542 2.7348,3.2471 2.7349,-1.3425 2.7348,-1.4063 2.7423,-21.2731 2.7349,2.5395 2.7348,-2.372 2.7348,8.6103 2.7424,6.3532 2.7348,2.6708 2.7348,-1.6669 2.7349,14.1952 2.7423,-12.3412 2.7349,-0.8572 2.7348,-0.0658 2.7348,10.1354 2.7424,-6.083 2.7348,-9.9545 2.7348,-18.9672 2.7349,-26.0068 2.7423,-28.7735 2.7349,-8.306 2.7348,-21.4581 2.7349,-13.4198 2.7423,-28.5793 2.7348,-8.6537 2.7348,-8.9481 2.7349,-13.2957 2.7423,-5.3351 2.7349,5.933 2.7348,8.7803 2.7348,16.21 2.7424,-6.2199 2.7348,2.4131 2.7349,12.1649 2.7348,18.8145 2.7423,2.0509 2.7348,7.2266 2.7349,-6.2191 2.7349,1.4863 2.7423,-1.2135 2.7348,-0.1807 2.7348,-3.0872 2.7349,1.4342 2.7423,8.2326 2.7349,-5.1832 2.7348,-2.944 2.7348,0.1815 2.7424,-17.6946 2.7348,2.7215 2.7348,-4.9163 2.7349,-0.0588 2.7423,4.0886 2.7349,-9.5392 2.7348,-2.3461 2.7348,-2.9577 2.7424,4.6986 2.7348,1.4119 2.7349,0.334 2.7348,11.3001 2.7423,10.2422 2.7348,-1.8295 2.7349,6.7203 2.7349,4.4719 2.7423,12.9024 2.7348,13.9661 2.7348,11.5811 2.7349,-1.1819 2.7423,2.9454 2.7349,8.0297 2.7348,12.1173 2.7348,7.6921 2.7423,17.4273 2.7349,4.4259 2.7348,7.576 2.7349,10.2825 2.7423,0.4676 2.7348,0.2091 2.7349,5.1224 2.7348,-2.2251 2.7424,-6.811 2.7348,0.6999 2.7348,2.5909 2.7348,-3.0377 2.7424,-1.9082 2.7348,0.8855 2.7349,-0.4164 2.7348,-3.7625 2.7424,-3.189 2.7349,7.4427 2.7348,6.063 2.7348,12.1778 2.7424,3.2173 2.7348,-5.0515 2.7349,5.4999 2.7348,2.6791 2.7348,1.1689 2.7349,4.0906 2.7348,1.5619 2.7349,6.028 2.7423,1.0458 2.7349,5.1114 2.7348,1.2678 2.7348,5.7458 2.7423,8.5217 2.7349,0.7072 2.7349,4.925 2.7348,1.4652 2.7423,0.2943 2.7348,6.3038 2.7346,2.6498 2.7348,0.6973 2.7424,-1.2724 2.7348,1.3475 2.7351,-0.2651 2.7348,-0.4185 2.7424,-0.2309 2.7348,0.2457 2.7349,-0.4103 2.7348,-1.1241 2.7423,-2.1082 2.7349,-2.3294 2.7348,-1.4394 2.7349,-0.5229 2.7423,0.7257 2.7348,-0.3075 2.7348,0.0587 2.7349,1.3197 2.7423,-1.8455 2.7349,-2.5186 2.7348,2.3814 2.7348,1.7303 2.7424,0.6212 2.7348,1.4558 2.7349,1.8684 2.7348,-1.5392 2.7417,-1.1347 2.7348,-0.7016 2.7352,-0.4947 2.7348,0.8167 2.7424,2.1805 2.7348,-0.5595 2.7349,-0.7162 2.7348,0.1968 2.7423,-0.3985 2.7349,-1.6932 2.7348,-2.4134 2.7349,0.972 2.7423,0.8711 2.7348,-0.799 2.7348,0.4041 2.7349,0.448 2.7423,0.0568 2.7349,0.8495 2.7348,-0.5086 2.7348,1.2334 2.7423,1.6928 2.7349,3.2699 2.7349,1.1063 2.7348,-0.2857 2.7423,1.414 2.7348,-0.6046 2.7349,-0.4482 2.7348,-0.2855 2.7424,0.6135 2.7348,1.0965 2.7348,-1.7988 2.7349,0.5341 2.7423,-0.5414 2.7349,-1.9882 2.7348,0.4332 2.7348,-1.879 2.7424,-1.2738 2.7348,0.5302 2.7348,-0.5924 2.7349,-1.9635 2.7423,-1.0201 2.7349,0.4203 2.7348,0.0564 2.7348,-2.5826 2.7423,1.3703 2.7349,0.5167 2.7349,-0.5568 2.7348,1.851 2.7423,-2.2603 2.7348,0.5831 2.7349,1.6692 2.7348,0.062 2.7424,0.0143 2.7348,-0.3123 2.7348,3.6779 2.7349,-0.3011 2.7423,-0.1763 2.7349,2.5357 2.7348,0.9504 2.7348,1.8089 2.7423,0.4221 2.7349,-0.718 2.7348,0.8893 2.7349,-0.0415 2.7423,0.052 2.7348,-1.5069 2.7349,0.3171 2.7348,-0.9696 2.7423,0.2747 2.7349,-0.749 2.7349,1.1634 2.7348,0.338 2.7423,0.0178 2.7349,-0.6913 2.7347,5.0264 2.7349,3.2914 2.7423,1.8942 2.7349,1.2135 2.7348,2.3929 2.7349,0.7129 2.7423,2.0235"
       fill="transparent"
       stroke="#d32f2f"
       stroke-width="2"
       stroke-linejoin="bevel"
       id="path711"
       style="fill:none" />
  </g>
  <path
     d="m 800.57568,5.6003 a 5.6,5.6 0 1 1 0,-6e-4"
     fill="#1976d2"
     fill-opacity="0"
     id="path738" />
  <path
     d="m 800.57568,45.6003 a 5.6,5.6 0 1 1 0,-6e-4"
     fill="#d32f2f"
     fill-opacity="0"
     id="path745" />
  <defs
     id="defs762">
    <clipPath
       id="zr0-c0">
      <path
         d="m 121,14 h 931 V 329 H 121 Z"
         fill="#000000"
         id="path755" />
    </clipPath>
    <clipPath
       id="zr0-c1">
      <path
         d="m 121,14 h 931 V 329 H 121 Z"
         fill="#000000"
         id="path756" />
    </clipPath>
    <clipPath
       id="zr0-c2">
      <path
         d="m 0,0 v 0 20 0 z"
         transform="matrix(1,0,0,-1,122.5,450.5)"
         fill="#000000"
         id="path757" />
    </clipPath>
    <clipPath
       id="zr0-c3">
      <path
         d="M 0,0 H 930 V 20 H 0 Z"
         transform="matrix(1,0,0,-1,122.5,450.5)"
         fill="#000000"
         id="path758" />
    </clipPath>
    <clipPath
       id="zr0-c4">
      <path
         d="m 930,0 v 0 20 0 z"
         transform="matrix(1,0,0,-1,122.5,450.5)"
         fill="#000000"
         id="path759" />
    </clipPath>
    <clipPath
       id="zr0-c5">
      <path
         d="m 0,0 v 0 20 0 z"
         transform="rotate(-90,174,158.5)"
         fill="#000000"
         id="path760" />
    </clipPath>
    <clipPath
       id="zr0-c6">
      <path
         d="M 0,0 H 325 V 20 H 0 Z"
         transform="rotate(-90,174,158.5)"
         fill="#000000"
         id="path761" />
    </clipPath>
    <clipPath
       id="zr0-c7">
      <path
         d="m 325,0 v 0 20 0 z"
         transform="rotate(-90,174,158.5)"
         fill="#000000"
         id="path762" />
    </clipPath>
  </defs>
</svg>
